<svg width="27" height="26" viewBox="0 0 27 26" fill="none" xmlns="http://www.w3.org/2000/svg">
<path d="M14.5006 4.91581C14.5006 4.91581 13.5399 6.7799 12.5492 10.1606L16.5121 4.06274C16.5121 4.06274 15.4613 4.22072 14.5006 4.91581Z" fill="white"/>
<path d="M26.4795 7.09581L23.3272 5.35809C23.3272 5.35809 23.9876 1.0296 21.1355 0.14494C18.2534 -0.708122 18.0433 2.48296 18.0433 2.48296L12.6693 10.6976L15.0411 12.7513L13.4499 15.2157L11.0481 15.4369C10.868 14.647 10.1775 14.2678 9.84725 14.1099L9.54703 17.6801C9.90729 17.5853 10.6578 17.301 10.9581 16.5427L19.9947 17.0166L20.0247 17.0482C20.355 17.3326 20.7753 17.3641 21.1355 17.1746C21.9762 16.7007 23.5073 15.6264 24.9784 13.32C26.4795 11.0452 26.8698 9.14948 26.9898 8.17004C27.0499 7.72771 26.8397 7.31698 26.4795 7.09581ZM14.2004 15.1525L15.4914 13.162L17.4428 14.8682L14.2004 15.1525ZM18.9439 2.98848C18.9439 0.460888 20.8353 1.06119 20.8353 1.06119C22.5166 1.6299 22.3965 3.99951 22.3064 4.82098L18.9439 2.98848Z" fill="white"/>
<path d="M9.15674 13.7939L8.85652 13.7623C8.85652 13.7623 8.85652 13.7623 8.8265 13.7623C8.70641 13.7623 8.58632 13.8571 8.58632 14.0151L8.2861 17.6169C8.2861 17.7749 8.37617 17.9013 8.52628 17.9013L8.8265 17.9329C8.8265 17.9329 8.8265 17.9329 8.85652 17.9329C8.97661 17.9329 9.0967 17.8381 9.0967 17.6801L9.39692 14.0783C9.39692 13.9519 9.30685 13.8255 9.15674 13.7939Z" fill="white"/>
<path d="M7.7457 14.489C7.89581 14.489 7.95585 14.5206 7.95585 14.5206H7.98588C8.10597 14.5206 8.19603 14.4258 8.22605 14.2995C8.25608 14.1731 8.16601 14.0467 8.0159 14.0151C8.0159 14.0151 7.92583 13.9835 7.77572 13.9835C7.65563 13.9835 7.53555 14.0783 7.50552 14.2047C7.50552 14.3627 7.62561 14.489 7.7457 14.489Z" fill="white"/>
<path d="M0.600483 20.4605C0.480395 20.4289 0.360307 20.5237 0.330285 20.65C0.300263 20.808 0.270241 20.9976 0.240219 21.1871C0.210197 21.3135 0.300263 21.4399 0.450373 21.4715H0.480395C0.600483 21.4715 0.69055 21.3767 0.720572 21.2503C0.750594 21.0608 0.780616 20.9028 0.810638 20.7448C0.810638 20.6184 0.720572 20.4921 0.600483 20.4605Z" fill="white"/>
<path d="M4.23314 14.9629C4.17309 14.8365 4.02298 14.805 3.90289 14.8681C3.75278 14.9629 3.60267 15.0577 3.45256 15.1525C3.33247 15.2157 3.30245 15.3737 3.39252 15.5C3.45256 15.5632 3.51261 15.6264 3.60267 15.6264C3.66272 15.6264 3.69274 15.6264 3.72276 15.5948C3.84285 15.5 3.99296 15.4053 4.14307 15.3421C4.26316 15.2473 4.29318 15.0893 4.23314 14.9629Z" fill="white"/>
<path d="M0.270199 22.7354C0.15011 22.7354 0.030022 22.8301 0.030022 22.9565C-2.90786e-08 23.1461 0 23.3357 0 23.4936C0 23.62 0.0900662 23.7464 0.240177 23.7464C0.360265 23.7464 0.480353 23.6516 0.480353 23.4936C0.480353 23.3041 0.480353 23.1461 0.510375 22.9565C0.510375 22.8617 0.420309 22.7354 0.270199 22.7354Z" fill="white"/>
<path d="M1.29093 18.2805C1.17084 18.2173 1.02073 18.2805 0.990711 18.4069C0.900644 18.5649 0.8406 18.7229 0.780556 18.9124C0.720512 19.0388 0.810578 19.1968 0.930667 19.2284C0.960689 19.2284 0.99071 19.2284 1.02073 19.2284C1.1108 19.2284 1.20087 19.1652 1.23089 19.0704C1.29093 18.9124 1.35098 18.7544 1.41102 18.5965C1.47106 18.4701 1.41102 18.3121 1.29093 18.2805Z" fill="white"/>
<path d="M6.03446 14.0782C5.85433 14.1098 5.70422 14.1414 5.52409 14.2046C5.404 14.2362 5.31393 14.3626 5.34395 14.5206C5.37398 14.647 5.46404 14.7101 5.58413 14.7101C5.61415 14.7101 5.61415 14.7101 5.64417 14.7101C5.79428 14.6785 5.97442 14.647 6.12453 14.6154C6.24462 14.5838 6.33468 14.4574 6.30466 14.331C6.30466 14.1414 6.18457 14.0782 6.03446 14.0782Z" fill="white"/>
<path d="M2.22162 17.1114C2.31168 16.985 2.43177 16.8271 2.52184 16.7007C2.6119 16.6059 2.58188 16.4479 2.49181 16.3531C2.40175 16.2583 2.25164 16.2899 2.16157 16.3847C2.04148 16.5111 1.95142 16.6691 1.83133 16.8271C1.74126 16.9534 1.77129 17.0798 1.89137 17.1746C1.9214 17.2062 1.98144 17.2378 2.04148 17.2378C2.10153 17.2062 2.16157 17.1746 2.22162 17.1114Z" fill="white"/>
<path d="M0.240177 25.0417C0.120088 25.0417 0 25.1681 0 25.2945C0 25.3893 0 25.4525 0 25.5473C0 25.6736 0.120088 25.8 0.240177 25.8C0.360265 25.8 0.480353 25.6736 0.480353 25.5473C0.480353 25.4525 0.480353 25.3893 0.480353 25.2945C0.480353 25.1365 0.360265 25.0417 0.240177 25.0417Z" fill="white"/>
<path d="M2.70198 21.1239C2.5819 21.0923 2.46181 21.1871 2.43179 21.3135C2.40176 21.4715 2.37174 21.6294 2.34172 21.819C2.3117 21.9454 2.40176 22.0718 2.55187 22.1034H2.5819C2.70199 22.1034 2.79205 22.0086 2.82207 21.8822C2.8521 21.7242 2.88212 21.5663 2.91214 21.4083C2.91214 21.2819 2.82207 21.1555 2.70198 21.1239Z" fill="white"/>
<path d="M2.40176 23.2723C2.28167 23.2723 2.16158 23.3671 2.16158 23.4935C2.16158 23.6515 2.13156 23.841 2.13156 23.999C2.13156 24.1254 2.22163 24.2518 2.37174 24.2518C2.49183 24.2518 2.61191 24.157 2.61191 23.999C2.61191 23.841 2.64194 23.6515 2.64194 23.4935C2.61191 23.3987 2.52185 23.2723 2.40176 23.2723Z" fill="white"/>
<path d="M3.33244 19.0702C3.21235 19.007 3.06224 19.0702 3.03222 19.1966C2.97218 19.3546 2.91213 19.5125 2.85209 19.6705C2.79205 19.7969 2.88211 19.9549 3.0022 19.9865C3.03222 19.9865 3.06224 19.9865 3.09227 19.9865C3.18233 19.9865 3.2724 19.9233 3.30242 19.8285C3.36246 19.6705 3.42251 19.5125 3.48255 19.3861C3.51257 19.2598 3.45253 19.1018 3.33244 19.0702Z" fill="white"/>
<path d="M8.04593 15.5949C8.04593 15.5949 7.83578 15.5634 7.53556 15.5634C7.41547 15.5634 7.29538 15.6897 7.29538 15.8161C7.29538 15.9425 7.41547 16.0689 7.53556 16.0689C7.80576 16.0689 7.95587 16.0689 7.95587 16.0689H7.98589C8.10598 16.0689 8.19604 15.9741 8.22606 15.8477C8.25609 15.7529 8.16602 15.6265 8.04593 15.5949Z" fill="white"/>
<path d="M4.4733 17.2695C4.38323 17.1747 4.23312 17.1747 4.14306 17.3011C4.02297 17.4274 3.9329 17.5538 3.84283 17.7118C3.75277 17.8382 3.78279 17.9646 3.90288 18.0593C3.9329 18.0909 3.99295 18.1225 4.05299 18.1225C4.11303 18.1225 4.2031 18.0909 4.23312 18.0277C4.32319 17.9014 4.41325 17.775 4.53334 17.6486C4.59339 17.5222 4.59339 17.3643 4.4733 17.2695Z" fill="white"/>
<path d="M5.88432 15.9739C5.73421 16.0371 5.5841 16.1319 5.43399 16.1951C5.3139 16.2582 5.28388 16.4162 5.34393 16.5426C5.37395 16.6374 5.46401 16.669 5.55408 16.669C5.5841 16.669 5.64415 16.669 5.67417 16.6374C5.79426 16.5742 5.94437 16.4794 6.06446 16.4162C6.18454 16.353 6.24459 16.2266 6.18454 16.1003C6.15452 15.9739 6.00441 15.9107 5.88432 15.9739Z" fill="white"/>
<path d="M4.56335 23.4304C4.68344 23.4304 4.80353 23.304 4.80353 23.1776C4.80353 23.0196 4.80353 22.8617 4.80353 22.7037C4.80353 22.5773 4.71346 22.4509 4.59337 22.4509C4.47328 22.4509 4.35319 22.5457 4.35319 22.6721C4.35319 22.8301 4.35319 23.0196 4.35319 23.1776C4.32317 23.3356 4.41324 23.4304 4.56335 23.4304Z" fill="white"/>
<path d="M7.62563 17.2377C7.59561 17.2377 7.56559 17.2377 7.53556 17.2693H7.50554C7.4455 17.3009 7.29539 17.3641 7.08523 17.4588C6.96514 17.522 6.9051 17.68 6.96514 17.8064C6.99517 17.9012 7.08523 17.9644 7.1753 17.9644C7.20532 17.9644 7.23534 17.9644 7.26537 17.9328C7.4455 17.838 7.56559 17.8064 7.62563 17.7748C7.68567 17.7432 7.83578 17.7116 7.83578 17.522C7.86581 17.364 7.74572 17.2377 7.62563 17.2377Z" fill="white"/>
<path d="M5.76424 18.5331C5.64415 18.6595 5.55409 18.7859 5.46402 18.9439C5.37395 19.0702 5.40398 19.2282 5.52406 19.2914C5.55409 19.323 5.61413 19.323 5.67417 19.323C5.73422 19.323 5.82428 19.2914 5.85431 19.2282C5.94437 19.1018 6.03444 18.9754 6.12451 18.8491C6.21457 18.7543 6.21457 18.5963 6.09448 18.5015C6.00442 18.4067 5.85431 18.4067 5.76424 18.5331Z" fill="white"/>
<path d="M5.01364 20.3341C4.89356 20.3025 4.74345 20.3657 4.71342 20.4921C4.65338 20.65 4.62336 20.808 4.56331 20.9976C4.53329 21.124 4.62336 21.2819 4.74345 21.3135C4.77347 21.3135 4.77347 21.3135 4.80349 21.3135C4.92358 21.3135 5.01364 21.2504 5.04367 21.124C5.07369 20.966 5.13373 20.808 5.16376 20.65C5.19378 20.5237 5.13373 20.3657 5.01364 20.3341Z" fill="white"/>
<path d="M4.89359 24.8206C4.89359 24.6942 4.7735 24.5678 4.62339 24.5994C4.5033 24.5994 4.41324 24.7258 4.41324 24.8837C4.44326 25.0417 4.44326 25.2313 4.47328 25.3893C4.5033 25.5156 4.59337 25.6104 4.71346 25.6104H4.74348C4.86357 25.5788 4.95364 25.4525 4.95364 25.3261C4.92361 25.1681 4.89359 24.9785 4.89359 24.8206Z" fill="white"/>
</svg>
